<?xml version="1.0" standalone="no"?>
<!DOCTYPE svg PUBLIC "-//W3C//DTD SVG 20010904//EN"
 "http://www.w3.org/TR/2001/REC-SVG-20010904/DTD/svg10.dtd">
<svg version="1.0" xmlns="http://www.w3.org/2000/svg"
 width="550.000000pt" height="550.000000pt" viewBox="0 0 550.000000 550.000000"
 preserveAspectRatio="xMidYMid meet">
<metadata>
Created by potrace 1.11, written by Peter Selinger 2001-2013
</metadata>
<g transform="translate(0.000000,550.000000) scale(0.100000,-0.100000)"
fill="#000000" stroke="none">
<path d="M1054 5489 c-11 -6 -28 -23 -37 -39 -15 -25 -17 -90 -17 -699 0 -460
3 -678 11 -694 6 -13 23 -31 39 -40 26 -16 89 -17 707 -17 629 1 680 2 699 18
12 10 26 27 33 39 8 16 11 207 11 693 0 609 -2 675 -17 700 -9 16 -27 33 -40
39 -32 15 -1359 14 -1389 0z"/>
<path d="M3048 5483 c-14 -9 -31 -27 -37 -40 -15 -33 -15 -1353 0 -1386 6 -13
23 -31 39 -40 25 -15 91 -17 699 -17 460 0 678 3 694 11 13 6 31 23 40 39 15
25 17 91 17 700 0 609 -2 675 -17 700 -9 16 -27 33 -40 39 -17 8 -234 11 -696
11 -608 -1 -675 -2 -699 -17z"/>
<path d="M1048 3483 c-14 -9 -31 -27 -37 -40 -8 -16 -11 -237 -11 -694 0 -608
2 -674 17 -699 9 -16 27 -33 40 -39 16 -8 234 -11 694 -11 608 0 674 2 699 17
16 9 33 27 39 40 8 16 11 234 11 694 0 608 -2 674 -17 699 -9 16 -27 33 -40
39 -17 8 -234 11 -696 11 -608 -1 -675 -2 -699 -17z"/>
<path d="M3054 3489 c-11 -6 -28 -23 -37 -39 -15 -25 -17 -90 -17 -700 0 -609
2 -675 17 -700 9 -16 27 -33 40 -39 33 -15 1353 -15 1386 0 13 6 31 23 40 39
15 25 17 91 17 700 0 609 -2 675 -17 700 -9 16 -27 33 -40 39 -32 15 -1359 14
-1389 0z"/>
<path d="M1048 1483 c-14 -9 -31 -27 -37 -40 -8 -16 -11 -237 -11 -694 0 -608
2 -674 17 -699 9 -16 27 -33 40 -39 16 -8 234 -11 694 -11 608 0 674 2 699 17
16 9 33 27 39 40 15 33 15 1353 0 1386 -6 13 -23 31 -39 40 -25 15 -91 17
-702 17 -609 -1 -676 -2 -700 -17z"/>
<path d="M3054 1489 c-11 -6 -28 -23 -37 -39 -15 -25 -17 -90 -17 -700 0 -609
2 -675 17 -700 9 -16 27 -33 40 -39 17 -8 230 -11 701 -11 628 1 679 2 698 18
12 10 26 27 33 39 15 30 16 1351 0 1386 -6 13 -23 31 -39 40 -25 15 -90 17
-702 16 -431 0 -680 -4 -694 -10z"/>
</g>
</svg>
